<svg xmlns="http://www.w3.org/2000/svg"  viewBox="0 0 50 50" width="50px" height="50px"><path d="M25,2C12.317,2,2,12.317,2,25s10.317,23,23,23s23-10.317,23-23S37.683,2,25,2z M19,15c4,5,1,10,1,10h-7L19,15z M41,29	l-2.895,1.447c-0.708,0.354-1.246,0.974-1.496,1.725v0C35.648,35.055,32.95,38,29.911,38h-9.123c-4.551,0-8.491-4.161-9.478-8.603	L11,28h8c0,1.657,1.343,3,3,3h3v-4h-3c5-7-1-14-1-14s1.798,0.559,4,1.244V12c0-0.553,0.447-1,1-1s1,0.447,1,1v2.867	C38,21.4,30,27,30,27h-3v4h3.242c0.494,0,0.977-0.146,1.388-0.42L34,29l7-2V29z"/></svg>